<svg width="237" height="237" viewBox="0 0 237 237" fill="none" xmlns="http://www.w3.org/2000/svg">
<g filter="url(#filter0_f_1_6064)">
<path d="M118.496 116.733H21.7765L3.99609 83.0117L118.496 116.733Z" fill="#EFC842"/>
<path d="M118.496 116.733H215.216L232.996 83.0117L118.496 116.733Z" fill="#EFC842"/>
<path d="M118.496 116.733H21.7765L3.99609 83.0117L118.496 116.733ZM118.496 116.733H215.216L232.996 83.0117L118.496 116.733Z" stroke="#5B4C4C"/>
<path d="M118.496 120.259H21.7765L3.99609 153.98L118.496 120.259Z" fill="#EFC842" stroke="#5B4C4C"/>
<path d="M118.344 120.259H215.063L232.844 153.98L118.344 120.259Z" fill="#EFC842" stroke="#5B4C4C"/>
<path d="M116.733 118.496L116.733 215.216L83.0117 232.996L116.733 118.496Z" fill="#EFC842"/>
<path d="M116.733 118.496L116.733 21.7765L83.0117 3.99609L116.733 118.496Z" fill="#EFC842"/>
<path d="M116.733 118.496L116.733 215.216L83.0117 232.996L116.733 118.496ZM116.733 118.496L116.733 21.7766L83.0117 3.9961L116.733 118.496Z" stroke="#5B4C4C"/>
<path d="M120.259 118.496L120.259 215.216L153.98 232.996L120.259 118.496Z" fill="#EFC842" stroke="#5B4C4C"/>
<path d="M120.259 118.645L120.259 21.925L153.98 4.14453L120.259 118.645Z" fill="#EFC842" stroke="#5B4C4C"/>
<path d="M52.64 182.005C60.3822 190.044 80.487 188.434 80.487 188.434L105.381 129.395L46.9295 154.793C46.9295 154.793 45.1077 174.184 52.64 182.005Z" fill="#EFC842" stroke="#5B4C4C"/>
<path d="M49.64 51.2725C57.3822 43.2334 77.487 44.8431 77.487 44.8431L102.381 103.882L43.9295 78.4843C43.9295 78.4843 42.1077 59.0935 49.64 51.2725Z" fill="#EFC842" stroke="#5B4C4C"/>
<path d="M183.282 51.2725C175.54 43.2334 155.435 44.8431 155.435 44.8431L130.541 103.882L188.992 78.4843C188.992 78.4843 190.814 59.0935 183.282 51.2725Z" fill="#EFC842" stroke="#5B4C4C"/>
<path d="M183.282 182.005C175.54 190.044 155.435 188.434 155.435 188.434L130.541 129.395L188.992 154.793C188.992 154.793 190.814 174.184 183.282 182.005Z" fill="#EFC842" stroke="#5B4C4C"/>
</g>
<defs>
<filter id="filter0_f_1_6064" x="0" y="0" width="236.992" height="236.992" filterUnits="userSpaceOnUse" color-interpolation-filters="sRGB">
<feFlood flood-opacity="0" result="BackgroundImageFix"/>
<feBlend mode="normal" in="SourceGraphic" in2="BackgroundImageFix" result="shape"/>
<feGaussianBlur stdDeviation="1.5" result="effect1_foregroundBlur_1_6064"/>
</filter>
</defs>
</svg>
